<svg width="45" height="16" viewBox="0 0 45 16" fill="none" xmlns="http://www.w3.org/2000/svg">
<path d="M11.4756 0C12.3935 0 13.1377 0.744198 13.1377 1.66211C13.1377 2.57998 12.3935 3.32422 11.4756 3.32422H3.64062V6.33105H10.2891C11.0757 6.33118 11.7137 6.96927 11.7139 7.75586C11.7139 8.54257 11.0757 9.18054 10.2891 9.18066H3.64062V12.5059C3.6674 12.5052 3.6938 12.5056 3.71973 12.5049C5.70574 12.45 6.82915 12.3786 8.78516 12.0303C9.48166 11.9063 10.3243 11.7015 11.082 11.502C12.1098 11.2313 13.1377 11.9958 13.1377 13.0586C13.1376 13.762 12.6741 14.3808 11.9951 14.5645C10.8882 14.8635 9.19357 15.2968 7.91406 15.5127C6.25849 15.7921 5.31868 15.9272 3.64062 15.9873C3.53047 15.9912 3.41181 15.9941 3.28906 15.9961C3.0233 16.0004 2.77314 15.94 2.5498 15.833C2.32628 15.931 2.08001 15.9873 1.82031 15.9873C0.815052 15.9873 0.000117419 15.1722 0 14.167V1.82031C3.05595e-07 1.79378 0.0027819 1.76747 0.00390625 1.74121C0.00267373 1.71497 1.30626e-06 1.68866 0 1.66211C0 0.744198 0.744198 0 1.66211 0H11.4756Z" fill="white"/>
<path d="M42.9751 0C43.893 0 44.6372 0.744198 44.6372 1.66211C44.6372 2.57998 43.893 3.32422 42.9751 3.32422H35.1401V6.33105H41.7886C42.5752 6.33114 43.2132 6.96925 43.2134 7.75586C43.2134 8.54259 42.5753 9.18058 41.7886 9.18066H35.1401V12.5059C35.1669 12.5052 35.1933 12.5056 35.2192 12.5049C37.2052 12.45 38.3287 12.3786 40.2847 12.0303C40.9812 11.9063 41.8238 11.7015 42.5815 11.502C43.6093 11.2313 44.6372 11.9958 44.6372 13.0586C44.6371 13.762 44.1737 14.3808 43.4946 14.5645C42.3879 14.8635 40.694 15.2968 39.4146 15.5127C37.7587 15.7921 36.8184 15.9272 35.1401 15.9873C35.03 15.9912 34.9113 15.9941 34.7886 15.9961C34.5228 16.0004 34.2727 15.9401 34.0493 15.833C33.8258 15.931 33.5795 15.9873 33.3198 15.9873C32.3146 15.9873 31.4996 15.1722 31.4995 14.167V1.82031C31.4995 1.79378 31.5023 1.76747 31.5034 1.74121C31.5022 1.71497 31.4995 1.68866 31.4995 1.66211C31.4995 0.744198 32.2437 0 33.1616 0H42.9751Z" fill="white"/>
<path d="M27.5425 0.474854C28.2711 0.474854 28.8697 1.02209 28.9546 1.72778C29.0209 1.93467 29.0534 2.15715 29.0376 2.38989C28.9099 4.26363 28.6004 7.1177 27.8589 9.10181C26.7808 11.9864 24.7725 14.8786 23.8228 15.4329C22.2613 16.3437 21.203 13.6786 22.2095 12.177C22.8292 11.2527 23.3377 10.2747 23.7612 9.18091H17.0952C16.3085 9.18087 15.6704 8.54286 15.6704 7.7561C15.6704 6.96935 16.3085 6.33133 17.0952 6.3313H23.9019C24.146 6.33132 24.3758 6.39298 24.5767 6.50122C24.8037 5.54007 24.994 4.48981 25.1567 3.32446H16.7788C15.9921 3.32446 15.3541 2.68635 15.354 1.89966C15.354 1.11288 15.992 0.474857 16.7788 0.474854H27.5425Z" fill="white"/>
</svg>
