<svg width="221" height="79" viewBox="0 0 221 79" fill="none" xmlns="http://www.w3.org/2000/svg">
<path d="M59.79 0C62.5514 0.000106658 64.79 2.23864 64.79 5V11.3926C64.79 14.1539 62.5514 16.3925 59.79 16.3926H17.9541V31.2236H52.7646C55.5258 31.2237 57.7644 33.4625 57.7646 36.2236V40.2744C57.7646 43.0358 55.526 45.2743 52.7646 45.2744H17.9541V61.6748C18.086 61.6717 18.216 61.6705 18.3438 61.667C28.1378 61.3962 33.6772 61.0428 43.3232 59.3252C48.4029 58.4207 55.06 56.6519 59.6055 55.3711C62.1916 54.6424 64.79 56.5758 64.79 59.2627V67.251C64.79 69.03 63.6213 70.593 61.9072 71.0693C56.9294 72.4526 46.5349 75.2326 39.0303 76.499C30.8644 77.877 26.23 78.5444 17.9541 78.8408C16.0759 78.9081 13.6963 78.9114 11.7139 78.8965C11.4933 78.8948 11.2775 78.8734 11.0674 78.8369C11.0297 78.8375 10.9919 78.8408 10.9541 78.8408H7C3.13407 78.8408 9.89556e-05 75.7067 0 71.8408V5C0 2.23858 2.23858 0 5 0H59.79Z" fill="#333333"/>
<path d="M215.13 0C217.891 0.000106658 220.13 2.23864 220.13 5V11.3926C220.13 14.1539 217.891 16.3925 215.13 16.3926H173.293V31.2236H208.104C210.865 31.2236 213.103 33.4624 213.104 36.2236V40.2744C213.104 43.0358 210.865 45.2744 208.104 45.2744H173.293V61.6748C173.425 61.6717 173.556 61.6705 173.684 61.667C183.478 61.3962 189.017 61.0428 198.663 59.3252C203.743 58.4207 210.4 56.6519 214.945 55.3711C217.531 54.6426 220.129 56.5759 220.129 59.2627V67.251C220.129 69.03 218.961 70.593 217.247 71.0693C212.269 72.4526 201.874 75.2326 194.369 76.499C186.203 77.877 181.569 78.5444 173.293 78.8408C171.415 78.9081 169.036 78.9114 167.054 78.8965C166.833 78.8948 166.617 78.8735 166.406 78.8369C166.369 78.8375 166.331 78.8408 166.293 78.8408H162.34C158.474 78.8408 155.34 75.7067 155.34 71.8408V5C155.34 2.23858 157.578 0 160.34 0H215.13Z" fill="#333333"/>
<path d="M140.589 2.3418C142.262 2.3418 143.606 3.69653 143.541 5.36816C143.252 12.8212 142.065 32.3643 137.386 44.8848C132.069 59.1113 122.164 73.3756 117.48 76.1084C114.695 77.7335 106.799 78.1162 100.858 78.1592C98.1936 78.1785 96.9617 74.9478 98.8213 73.0391C107.229 64.41 113.039 55.9737 117.181 45.2744H82.2793C79.5179 45.2744 77.2793 43.0358 77.2793 40.2744V36.2236C77.2794 33.4623 79.518 31.2237 82.2793 31.2236H119.896C120.402 31.2236 120.892 31.2993 121.353 31.4395C122.408 26.8686 123.299 21.8898 124.066 16.3926H80.7178C77.9564 16.3925 75.7178 14.154 75.7178 11.3926V7.3418C75.7178 4.58045 77.9564 2.34187 80.7178 2.3418H140.589Z" fill="#333333"/>
</svg>
