<svg width="45" height="16" viewBox="0 0 45 16" fill="none" xmlns="http://www.w3.org/2000/svg">
<path d="M11.4785 0C12.3965 0 13.1405 0.744124 13.1406 1.66211C13.1406 2.58023 12.3966 3.3252 11.4785 3.3252H3.6416V6.33301H10.291C11.0779 6.33301 11.7157 6.97096 11.7158 7.75781C11.7158 8.54478 11.078 9.18262 10.291 9.18262H3.6416V12.5088C3.66829 12.5082 3.69486 12.5085 3.7207 12.5078C5.70703 12.4529 6.83072 12.3816 8.78711 12.0332C9.48379 11.9091 10.3271 11.7045 11.085 11.5049C12.1128 11.2345 13.1406 11.9986 13.1406 13.0615C13.1406 13.7653 12.6765 14.3838 11.9971 14.5674C10.8899 14.8665 9.1958 15.2997 7.91602 15.5156C6.25986 15.7951 5.32002 15.9311 3.6416 15.9912C3.53131 15.9952 3.41197 15.998 3.28906 16C3.02355 16.0043 2.77396 15.9438 2.55078 15.8369C2.32713 15.935 2.08017 15.9912 1.82031 15.9912C0.814932 15.991 0 15.1754 0 14.1699V1.82031C6.57953e-06 1.79378 0.00277586 1.76747 0.00390625 1.74121C0.00268459 1.71506 0 1.68856 0 1.66211C0.000161541 0.744224 0.744224 0.000161329 1.66211 0H11.4785Z" fill="#333333"/>
<path d="M42.9854 0C43.9034 0 44.6473 0.744124 44.6475 1.66211C44.6475 2.58023 43.9035 3.3252 42.9854 3.3252H35.1484V6.33301H41.7979C42.5847 6.33301 43.2225 6.97096 43.2227 7.75781C43.2227 8.54478 42.5848 9.18262 41.7979 9.18262H35.1484V12.5088C35.1751 12.5082 35.2017 12.5085 35.2275 12.5078C37.2139 12.4529 38.3376 12.3816 40.2939 12.0332C40.9906 11.9091 41.8339 11.7045 42.5918 11.5049C43.6196 11.2345 44.6475 11.9986 44.6475 13.0615C44.6474 13.7653 44.1833 14.3838 43.5039 14.5674C42.3968 14.8665 40.7026 15.2997 39.4229 15.5156C37.7667 15.7951 36.8269 15.9311 35.1484 15.9912C35.0381 15.9952 34.9188 15.998 34.7959 16C34.5304 16.0043 34.2808 15.9438 34.0576 15.8369C33.834 15.935 33.587 15.9912 33.3271 15.9912C32.3218 15.991 31.5068 15.1754 31.5068 14.1699V1.82031C31.5068 1.79378 31.5096 1.76747 31.5107 1.74121C31.5095 1.71506 31.5068 1.68856 31.5068 1.66211C31.507 0.744224 32.2511 0.000161329 33.1689 0H42.9854Z" fill="#333333"/>
<path d="M27.5488 0.474609C28.2782 0.474617 28.8788 1.02274 28.9629 1.72949C29.0287 1.93589 29.0598 2.15855 29.0439 2.39062C28.9162 4.2648 28.6068 7.11911 27.8652 9.10352C26.7868 11.989 24.7781 14.8824 23.8281 15.4365C22.2662 16.3476 21.2069 13.6806 22.2139 12.1787C22.8337 11.2542 23.343 10.2767 23.7666 9.18262H17.0996C16.3127 9.18262 15.6739 8.5447 15.6738 7.75781C15.6738 6.97085 16.3126 6.33301 17.0996 6.33301H23.9072C24.1515 6.33301 24.3811 6.39464 24.582 6.50293C24.8092 5.54124 24.9993 4.49031 25.1621 3.32422H16.7822C15.9954 3.32401 15.3574 2.68625 15.3574 1.89941C15.3575 1.11263 15.9955 0.474815 16.7822 0.474609H27.5488Z" fill="#333333"/>
</svg>
